# xmcd
# Track frame offsets:
# 150
# 12210
# 28267
# 44695
# 58355
# 77407
# 95430
# 105757
# 123545
# 135282
# 154410
#
# Disc length: 2266 seconds
# Revision: 0
# Processed by: cddbd v1.4PL0 Copyright (c) Steve Scherf et al.
# Submitted via: VisiTrax 2.9.5.181 - For more info visit www.synapsa.com
#
DISCID=8908d80b
DTITLE=Brian Thomas - Southern Breeze
DYEAR=1993
DGENRE=
TTITLE0=Lovin' You
TTITLE1=Chances Are
TTITLE2=Heaven Knows
TTITLE3=Old Lady Hatke
TTITLE4=It's Okay For Cowboys To Cry
TTITLE5=Whittlin' Man
TTITLE6=Can't Take The Country
TTITLE7=If I Lost You
TTITLE8=Southern Breeze
TTITLE9=Long Distance Love
TTITLE10=Don't Say Goodbye
EXTD=
EXTT0=
EXTT1=
EXTT2=
EXTT3=
EXTT4=
EXTT5=
EXTT6=
EXTT7=
EXTT8=
EXTT9=
EXTT10=
PLAYORDER=
